<svg width="64" height="61" viewBox="0 0 64 61" fill="none" xmlns="http://www.w3.org/2000/svg">
<mask id="path-1-inside-1_0_5" fill="white">
<path d="M5 32.3878V32.3878C10.1103 28.3076 17.5606 29.1427 21.6408 34.2529L29.6181 44.2442C31.6582 46.7994 31.2407 50.5245 28.6856 52.5646V52.5646C26.1304 54.6047 22.4053 54.1872 20.3652 51.6321L5 32.3878Z"/>
</mask>
<path d="M-23.4963 70.2918L-15.519 80.2831L74.7552 8.20536L66.7779 -1.78592L-23.4963 70.2918ZM65.5023 15.5932L50.1371 -3.65103L-40.1371 68.4267L-24.7719 87.6709L65.5023 15.5932ZM-7.35329 7.42751C15.0201 -10.4361 47.6387 -6.78019 65.5023 15.5932L-24.7719 87.6709C-2.82812 115.155 37.2408 119.646 64.7244 97.7017L-7.35329 7.42751ZM-15.519 80.2831C-33.3826 57.9097 -29.7267 25.2911 -7.35329 7.42751L64.7244 97.7017C92.2081 75.7579 96.699 35.689 74.7552 8.20536L-15.519 80.2831ZM41.0389 77.5249C21.2206 93.3485 -7.67282 90.1101 -23.4963 70.2918L66.7779 -1.78592C42.794 -31.8247 -1.00005 -36.7332 -31.0389 -12.7493L41.0389 77.5249Z" fill="url(#paint0_linear_0_5)" mask="url(#path-1-inside-1_0_5)"/>
<g filter="url(#filter0_d_0_5)">
<mask id="path-3-inside-2_0_5" fill="white">
<path d="M45 32.3878V32.3878C39.8897 28.3076 32.4394 29.1427 28.3592 34.2529L20.3819 44.2442C18.3418 46.7994 18.7593 50.5245 21.3144 52.5646V52.5646C23.8696 54.6047 27.5947 54.1872 29.6348 51.6321L45 32.3878Z"/>
</mask>
<path d="M73.4963 70.2918L65.519 80.2831L-24.7552 8.20536L-16.7779 -1.78592L73.4963 70.2918ZM-15.5023 15.5932L-0.137098 -3.65103L90.1371 68.4267L74.7719 87.6709L-15.5023 15.5932ZM57.3533 7.42751C34.9799 -10.4361 2.36132 -6.78019 -15.5023 15.5932L74.7719 87.6709C52.8281 115.155 12.7592 119.646 -14.7244 97.7017L57.3533 7.42751ZM65.519 80.2831C83.3826 57.9097 79.7267 25.2911 57.3533 7.42751L-14.7244 97.7017C-42.2081 75.7579 -46.699 35.689 -24.7552 8.20536L65.519 80.2831ZM8.96114 77.5249C28.7794 93.3485 57.6728 90.1101 73.4963 70.2918L-16.7779 -1.78592C7.20602 -31.8247 51.0001 -36.7332 81.0389 -12.7493L8.96114 77.5249Z" fill="url(#paint1_linear_0_5)" mask="url(#path-3-inside-2_0_5)"/>
</g>
<defs>
<filter id="filter0_d_0_5" x="0.954102" y="0.248491" width="62.1797" height="60.3263" filterUnits="userSpaceOnUse" color-interpolation-filters="sRGB">
<feFlood flood-opacity="0" result="BackgroundImageFix"/>
<feColorMatrix in="SourceAlpha" type="matrix" values="0 0 0 0 0 0 0 0 0 0 0 0 0 0 0 0 0 0 127 0" result="hardAlpha"/>
<feOffset dy="-11.4176"/>
<feGaussianBlur stdDeviation="9.06689"/>
<feComposite in2="hardAlpha" operator="out"/>
<feColorMatrix type="matrix" values="0 0 0 0 0 0 0 0 0 0 0 0 0 0 0 0 0 0 0.1 0"/>
<feBlend mode="normal" in2="BackgroundImageFix" result="effect1_dropShadow_0_5"/>
<feBlend mode="normal" in="SourceGraphic" in2="effect1_dropShadow_0_5" result="shape"/>
</filter>
<linearGradient id="paint0_linear_0_5" x1="9.62647" y1="28.6939" x2="28.6856" y2="52.5646" gradientUnits="userSpaceOnUse">
<stop stop-color="#245CB5"/>
</linearGradient>
<linearGradient id="paint1_linear_0_5" x1="40.3735" y1="28.6939" x2="21.3144" y2="52.5646" gradientUnits="userSpaceOnUse">
<stop stop-color="#245CB5"/>
</linearGradient>
</defs>
</svg>
