<svg xmlns="http://www.w3.org/2000/svg" width="64" height="61" fill="none" viewBox="0 0 64 61"><path fill="#005BBB" stroke="#FFD500" d="M21.25 34.5649L29.2274 44.5562C31.0952 46.8955 30.7129 50.3061 28.3736 52.1739C26.0343 54.0417 22.6237 53.6594 20.7559 51.3201L5.70946 32.4751C10.5859 28.9164 17.4467 29.8014 21.25 34.5649Z"/><g filter="url(#filter0_d_0_5)"><path fill="#005BBB" d="M45 32.3878V32.3878C39.8897 28.3076 32.4394 29.1427 28.3592 34.2529L20.3819 44.2442C18.3418 46.7994 18.7593 50.5245 21.3144 52.5646V52.5646C23.8696 54.6047 27.5947 54.1872 29.6348 51.6321L45 32.3878Z"/><path stroke="#FFD500" d="M28.75 34.5649L20.7726 44.5562C18.9048 46.8955 19.2871 50.3061 21.6264 52.1739C23.9657 54.0417 27.3763 53.6594 29.2441 51.3201L44.2905 32.4751C39.4141 28.9164 32.5533 29.8014 28.75 34.5649Z"/></g><defs><filter id="filter0_d_0_5" width="62.18" height="60.326" x=".954" y=".248" color-interpolation-filters="sRGB" filterUnits="userSpaceOnUse"><feFlood flood-opacity="0" result="BackgroundImageFix"/><feColorMatrix in="SourceAlpha" result="hardAlpha" type="matrix" values="0 0 0 0 0 0 0 0 0 0 0 0 0 0 0 0 0 0 127 0"/><feOffset dy="-11.418"/><feGaussianBlur stdDeviation="9.067"/><feComposite in2="hardAlpha" operator="out"/><feColorMatrix type="matrix" values="0 0 0 0 0 0 0 0 0 0 0 0 0 0 0 0 0 0 0.1 0"/><feBlend in2="BackgroundImageFix" mode="normal" result="effect1_dropShadow_0_5"/><feBlend in="SourceGraphic" in2="effect1_dropShadow_0_5" mode="normal" result="shape"/></filter></defs></svg>